<?xml version="1.0" encoding="iso-8859-1"?>
<!-- Generator: Adobe Illustrator 21.1.0, SVG Export Plug-In . SVG Version: 6.00 Build 0)  -->
<svg version="1.1" id="Layer_1" xmlns="http://www.w3.org/2000/svg" xmlns:xlink="http://www.w3.org/1999/xlink" x="0px" y="0px"
	 viewBox="0 0 41 41" style="enable-background:new 0 0 41 41;" xml:space="preserve">
<g>
	<g>
		<path style="fill:#FF6E19;" d="M20.501,41c-0.001,0-0.002,0-0.003,0C9.194,40.999-0.001,31.802,0,20.498
			C0,15.022,2.133,9.874,6.006,6.003C9.877,2.132,15.025,0,20.5,0c0.001,0,0.001,0,0.002,0C31.806,0.001,41.001,9.198,41,20.502
			h-1.5H41c0,5.476-2.133,10.624-6.006,14.496C31.123,38.868,25.976,41,20.501,41z M20.502,3C10.852,2.999,3.001,10.849,3,20.498
			c0,4.674,1.819,9.069,5.125,12.375c3.305,3.306,7.699,5.126,12.374,5.127c0,0,0.002,0,0.002,0c4.674,0,9.067-1.819,12.373-5.124
			c3.306-3.305,5.126-7.7,5.127-12.374C38.001,10.852,30.151,3.001,20.502,3z"/>
	</g>
	<g>
		<path style="fill:#FF6E19;" d="M28.022,21.501c0.953-0.55,0.953-1.45,0-2l-11.667-6.738c-0.953-0.55-1.732-0.1-1.732,1
			l-0.001,13.473c0,1.1,0.779,1.55,1.732,1L28.022,21.501z"/>
	</g>
</g>
</svg>
